<svg data-v-0dd9719b="" version="1.0" xmlns="http://www.w3.org/2000/svg" xmlns:xlink="http://www.w3.org/1999/xlink"
  width="100%" height="100%" viewBox="50 90 240 70" preserveAspectRatio="xMidYMid meet"
  color-interpolation-filters="sRGB" style="margin: auto;">
  <rect data-v-0dd9719b="" x="0" y="0" width="100%" height="100%" fill="#fff" fill-opacity="0" class="background">
  </rect>
  <rect data-v-0dd9719b="" x="0" y="0" width="100%" height="100%" fill="url(#watermark)" fill-opacity="1"
    class="watermarklayer"></rect>
  <g data-v-0dd9719b="" fill="#CBDBEE" class="icon-text-wrapper icon-svg-group iconsvg"
    transform="translate(50.419998170011134,95.43111419677734)">
    <g class="iconsvg-imagesvg" transform="matrix(1,0,0,1,0,0)" opacity="1">
      <g>
        <rect fill="#ce2a2a" fill-opacity="0" stroke-width="2" x="0" y="0" width="60" height="59.13777129452581"
          class="image-rect"></rect>
        <svg x="0" y="0" width="60" height="59.13777129452581" filtersec="colorsb4451319329"
          class="image-svg-svg primary" style="overflow: visible;">
          <svg xmlns="http://www.w3.org/2000/svg"
            viewBox="0.02377176284790039 -0.02077455446124077 104.85704040527344 103.3497543334961">
            <path
              d="M55.7 74.64H32.49a4.86 4.86 0 0 0-3.62 1.86L3.79 101.54c-.79.79-1.47 2.17-2.81 1.69s-.88-2-.88-3.09c0-7.49 0-15-.06-22.49a7.46 7.46 0 0 1 2.33-5.78Q19 55.43 35.42 38.86c2.13-2.13 2.58-2.07 4.32.47 2.74 4 5.53 7.91 8.16 12 1.29 2 2.22 2 3.91.31 9.34-9.53 18.8-18.92 28.19-28.33 3.71-3.71 7.44-7.39 11.13-11.12 1.39-1.39 2.59-1.53 4 .06 7.13 8.17 10.61 17.54 9.57 28.46-1.3 13.8-8.35 23.76-20.4 30.29A27.1 27.1 0 0 1 71 74.6c-5.08-.06-10.16 0-15.25 0z"
              fill="#10656f"></path>
            <path
              d="M36.48 0c9.42 0 18.84.11 28.25 0A42.83 42.83 0 0 1 83 3.47c2.16.95 2.46 1.71.8 3.39Q72.16 18.58 60.49 30.22c-2.64 2.65-5.36 5.22-7.94 7.94-1.34 1.41-2.18 1-3.13-.35-3-4.3-6.09-8.54-9-12.88-1.14-1.68-1.91-1.83-3.41-.31q-16.87 17-33.87 33.93c-.51.51-.94 1.33-1.81 1.1s-.67-1.22-.87-1.9c-.75-2.5.13-5 .12-7.46C.48 34.88.51 19.46.51 4.05c0-3.69.31-4 4-4Q20.48 0 36.48 0z"
              fill="#25af73"></path>
          </svg>
        </svg>
        <!---->
      </g>
    </g>
    <g transform="translate(67,11.723886489868164)">
      <g data-gra="path-name" fill-rule="" class="tp-name iconsvg-namesvg" opacity="1" transform="matrix(1,0,0,1,0,0)">
        <g transform="scale(1)">
          <g>
            <path
              d="M16.96-12.94L10-12.94 10 0 3.53 0 3.53-34.31 16.96-34.31Q19.61-34.31 21.57-33.46 23.53-32.6 24.83-31.2 26.13-29.8 26.79-28.01 27.45-26.23 27.45-24.36L27.45-24.36 27.45-23.19Q27.45-21.27 26.79-19.44 26.13-17.6 24.83-16.15 23.53-14.71 21.57-13.82 19.61-12.94 16.96-12.94L16.96-12.94ZM10-28.14L10-19.12 16.32-19.12Q18.48-19.12 19.73-20.29 20.98-21.47 20.98-23.33L20.98-23.33 20.98-23.92Q20.98-25.78 19.73-26.96 18.48-28.14 16.32-28.14L16.32-28.14 10-28.14ZM42.75-11.18L42.75-17.35 57.45-17.35 57.45 0 51.57 0 51.57-3.82 50.69-3.82Q50.1-1.91 48.43-0.61 46.76 0.69 43.43 0.69L43.43 0.69Q41.08 0.69 39.02-0.2 36.96-1.08 35.44-2.82 33.92-4.56 33.04-7.13 32.16-9.71 32.16-13.14L32.16-13.14 32.16-21.18Q32.16-24.51 33.11-27.08 34.07-29.66 35.76-31.42 37.45-33.19 39.8-34.09 42.16-35 45-35L45-35Q47.94-35 50.25-34.04 52.55-33.09 54.17-31.4 55.78-29.71 56.62-27.43 57.45-25.15 57.45-22.55L57.45-22.55 57.45-21.96 50.98-21.96 50.98-22.55Q50.98-25.64 49.39-27.23 47.79-28.82 44.9-28.82L44.9-28.82Q42.16-28.82 40.39-26.99 38.63-25.15 38.63-20.69L38.63-20.69 38.63-13.43Q38.63-5.49 45.1-5.49L45.1-5.49Q47.99-5.49 49.49-7.03 50.98-8.58 50.98-11.18L50.98-11.18 42.75-11.18ZM80.44-3.53L79.56-3.53Q78.58-1.23 76.81-0.27 75.05 0.69 72.7 0.69L72.7 0.69Q70.49 0.69 68.55-0.15 66.62-0.98 65.15-2.6 63.68-4.22 62.82-6.52 61.96-8.82 61.96-11.76L61.96-11.76 61.96-12.55Q61.96-15.44 62.79-17.75 63.63-20.05 65.05-21.67 66.47-23.28 68.36-24.14 70.25-25 72.4-25L72.4-25Q75-25 76.59-24.12 78.19-23.24 79.12-21.37L79.12-21.37 80-21.37 80-24.31 86.18-24.31 86.18-7.35Q86.18-5.88 87.5-5.88L87.5-5.88 88.43-5.88 88.43 0 84.22 0Q82.55 0 81.5-0.98 80.44-1.96 80.44-3.53L80.44-3.53ZM74.07-5.2L74.07-5.2Q76.76-5.2 78.38-6.99 80-8.77 80-11.86L80-11.86 80-12.45Q80-15.54 78.38-17.33 76.76-19.12 74.07-19.12L74.07-19.12Q71.37-19.12 69.75-17.33 68.14-15.54 68.14-12.45L68.14-12.45 68.14-11.86Q68.14-8.77 69.75-6.99 71.37-5.2 74.07-5.2ZM118.24-18.82L118.24 0 112.06 0 112.06-17.06Q112.06-18.09 111.54-18.6 111.03-19.12 110.2-19.12L110.2-19.12Q109.22-19.12 108.65-18.53 108.09-17.94 108.09-16.76L108.09-16.76 108.09 0 101.91 0 101.91-17.06Q101.91-18.09 101.35-18.6 100.78-19.12 100-19.12L100-19.12Q99.12-19.12 98.53-18.53 97.94-17.94 97.94-16.76L97.94-16.76 97.94 0 91.76 0 91.76-24.31 97.94-24.31 97.94-21.96 98.82-21.96Q99.12-23.28 100.17-24.14 101.23-25 102.94-25L102.94-25Q104.56-25 105.69-24.14 106.81-23.28 107.21-21.96L107.21-21.96 108.09-21.96Q108.48-23.28 109.73-24.14 110.98-25 112.84-25L112.84-25Q115.29-25 116.76-23.36 118.24-21.72 118.24-18.82L118.24-18.82ZM147.11-10.15L129.26-10.15Q129.31-9.07 129.78-8.16 130.25-7.25 131.05-6.59 131.86-5.93 132.92-5.56 133.97-5.2 135.15-5.2L135.15-5.2Q137.45-5.2 138.68-6 139.9-6.81 140.44-7.94L140.44-7.94 145.74-5Q145.29-4.07 144.51-3.06 143.73-2.06 142.48-1.23 141.23-0.39 139.44 0.15 137.65 0.69 135.25 0.69L135.25 0.69Q132.5 0.69 130.25-0.2 127.99-1.08 126.35-2.75 124.71-4.41 123.8-6.81 122.89-9.22 122.89-12.25L122.89-12.25 122.89-12.55Q122.89-15.34 123.85-17.65 124.8-19.95 126.47-21.57 128.14-23.19 130.37-24.09 132.6-25 135.15-25L135.15-25Q138.28-25 140.54-23.9 142.79-22.79 144.26-21.1 145.74-19.41 146.42-17.38 147.11-15.34 147.11-13.43L147.11-13.43 147.11-10.15ZM135.1-19.41L135.1-19.41Q132.75-19.41 131.27-18.21 129.8-17.01 129.36-15.44L129.36-15.44 140.83-15.44Q140.54-17.16 139-18.28 137.45-19.41 135.1-19.41ZM161.57-17.45L161.57-17.45Q161.57-16.27 162.79-15.76 164.02-15.25 167.25-14.9L167.25-14.9Q170.98-14.51 173.33-12.67 175.69-10.83 175.69-7.55L175.69-7.55 175.69-7.25Q175.69-3.63 173.04-1.47 170.39 0.69 165.59 0.69L165.59 0.69Q162.75 0.69 160.74-0.05 158.73-0.78 157.4-1.89 156.08-2.99 155.37-4.34 154.66-5.69 154.41-6.96L154.41-6.96 160.1-8.82Q160.49-7.25 161.74-6.08 162.99-4.9 165.59-4.9L165.59-4.9Q167.89-4.9 168.75-5.61 169.61-6.32 169.61-7.16L169.61-7.16Q169.61-7.65 169.39-8.06 169.17-8.48 168.58-8.85 167.99-9.22 166.99-9.46 165.98-9.71 164.46-9.85L164.46-9.85Q160.34-10.2 157.92-11.99 155.49-13.77 155.49-17.25L155.49-17.25 155.49-17.55Q155.49-19.36 156.27-20.74 157.06-22.11 158.33-23.06 159.61-24.02 161.27-24.51 162.94-25 164.71-25L164.71-25Q167.01-25 168.7-24.44 170.39-23.87 171.57-22.97 172.75-22.06 173.48-20.96 174.22-19.85 174.61-18.82L174.61-18.82 169.02-16.57Q168.58-17.89 167.5-18.65 166.42-19.41 164.71-19.41L164.71-19.41Q163.14-19.41 162.35-18.85 161.57-18.28 161.57-17.45Z"
              transform="translate(-3.5299999713897705, 35)"></path>
          </g>
          <!---->
          <!---->
          <!---->
          <!---->
          <!---->
          <!---->
          <!---->
        </g>
      </g>
      <!---->
    </g>
  </g>
  <defs v-gra="od"></defs>
</svg>